<svg width="80" height="80" viewBox="0 0 80 80" fill="none" xmlns="http://www.w3.org/2000/svg">
<rect width="80" height="80" fill="white" fill-opacity="0"/>
<path d="M39.7552 25L76.7409 46.3537L76.7647 56.0319L40.0276 77.5L2.79323 56.0319L2.76953 46.3537L39.7552 25Z" fill="url(#paint0_linear_1431_3916)"/>
<path d="M76.8046 55.9558V46.4517L40.0276 66.7742V77.5L76.8046 55.9558Z" fill="url(#paint1_linear_1431_3916)"/>
<path d="M2.7756 46.4517L40.1301 66.7742V77.5L2.76953 56.069L2.7756 46.4517Z" fill="url(#paint2_linear_1431_3916)"/>
<ellipse cx="39.5" cy="52" rx="18.5" ry="4" fill="url(#paint3_radial_1431_3916)"/>
<path d="M28.5161 7.91355C27.8496 7.51195 27 7.99194 27 8.77008V52.2299C27 53.0081 27.8496 53.488 28.5161 53.0864L64.5785 31.3565C65.2237 30.9678 65.2237 30.0322 64.5785 29.6435L28.5161 7.91355Z" fill="url(#paint4_linear_1431_3916)"/>
<defs>
<linearGradient id="paint0_linear_1431_3916" x1="39.7671" y1="25" x2="39.7671" y2="77.5" gradientUnits="userSpaceOnUse">
<stop stop-color="#F1F3FF"/>
<stop offset="1" stop-color="#A8B7FF"/>
</linearGradient>
<linearGradient id="paint1_linear_1431_3916" x1="38.367" y1="58.5728" x2="62.5976" y2="84.4403" gradientUnits="userSpaceOnUse">
<stop stop-color="#8499FF"/>
<stop offset="1" stop-color="#B1BEFF"/>
</linearGradient>
<linearGradient id="paint2_linear_1431_3916" x1="35.8371" y1="56.2743" x2="15.8537" y2="84.2743" gradientUnits="userSpaceOnUse">
<stop stop-color="#7B8FF3"/>
<stop offset="1" stop-color="#3E59E0"/>
</linearGradient>
<radialGradient id="paint3_radial_1431_3916" cx="0" cy="0" r="1" gradientUnits="userSpaceOnUse" gradientTransform="translate(39.5 52) rotate(90) scale(4 18.5)">
<stop stop-color="#445EE0"/>
<stop offset="1" stop-color="#566EE8" stop-opacity="0"/>
</radialGradient>
<linearGradient id="paint4_linear_1431_3916" x1="46.5" y1="7" x2="46.5" y2="54" gradientUnits="userSpaceOnUse">
<stop stop-color="#0B30E8"/>
<stop offset="1" stop-color="#132478"/>
</linearGradient>
</defs>
</svg>
