<svg width="170" height="64" viewBox="0 0 170 64" fill="none" xmlns="http://www.w3.org/2000/svg" style="width: auto; height: 44px;"><path fill-rule="evenodd" clip-rule="evenodd" d="M49.152 10.673L30.72 0 12.288 10.673v14.194L0 31.982v21.345L18.432 64l12.258-7.098.03.017.03-.017L43.008 64 61.44 53.327V31.982l-12.288-7.115V10.673zm10.368 22.42l-12.288-7.115V11.784L30.72 2.224l-16.512 9.56v14.194L1.92 33.093v19.122l16.512 9.561L30.69 54.68l.03.017.03-.017 12.258 7.097 16.512-9.56V33.093z" fill="url(#paint0_linear_615_417)"></path><path fill-rule="evenodd" clip-rule="evenodd" d="M49.152 24.903L30.72 14.23 12.288 24.903V46.25L30.72 56.92 49.152 46.25V24.903zm-34.944 1.112l16.512-9.561 16.512 9.56v19.123l-16.512 9.56-16.512-9.56V26.015zm17.471-.59v2.168a6.931 6.931 0 0 1 5.042-2.168h4.135v4.148a6.97 6.97 0 0 1-2.13 5.026h2.13v11.128H20.584V25.425h11.095zm-9.175 1.926v7.276h7.255v-7.276h-7.255zm14.217 0h2.215v2.222c0 2.791-2.256 5.054-5.04 5.054h-2.215v-2.222c0-2.791 2.256-5.054 5.04-5.054zM22.504 43.8h7.255v-7.276h-7.255V43.8zm9.177 0v-7.276h7.255V43.8h-7.255z" fill="url(#paint1_linear_615_417)"></path><path fill-rule="evenodd" clip-rule="evenodd" d="M80.005 26.07V10.03h7.737a3.795 3.795 0 0 1 3.79 3.8v1.152c0 1.01-.394 1.929-1.035 2.61a3.801 3.801 0 0 1 1.901 3.295v1.382c0 2.1-1.696 3.8-3.79 3.8h-8.603zm1.684-8.983h6.226a2.11 2.11 0 0 0 1.932-2.104V13.83a2.108 2.108 0 0 0-2.105-2.112h-6.053v5.369zm0 7.294v-5.598l6.92-.007c1.163 0 2.105.945 2.105 2.111v1.382a2.108 2.108 0 0 1-2.105 2.112h-6.92zm15.566-14.352v16.04h-1.762V10.03h1.762zm8.733 4.331h-1.827a3.816 3.816 0 0 0-3.811 3.822v4.066a3.816 3.816 0 0 0 3.811 3.822h1.827a3.817 3.817 0 0 0 3.811-3.822v-4.066a3.817 3.817 0 0 0-3.811-3.822zm-1.827 1.768c-1.131 0-2.049.92-2.049 2.054v4.066c0 1.135.918 2.054 2.049 2.054h1.827c1.131 0 2.048-.92 2.048-2.054v-4.066a2.051 2.051 0 0 0-2.048-2.054h-1.827zm21.043 9.948v-5.77h2.148l3.322 5.77h2.035l-3.821-6.638 2.993-5.198h-2.035l-2.474 4.298h-2.168V10.03h-1.762v16.047h1.762zm-5.556-7.581v-.313a2.051 2.051 0 0 0-2.048-2.054h-1.827c-1.132 0-2.049.92-2.049 2.054v4.066c0 1.135.917 2.054 2.049 2.054h1.827c1.131 0 2.048-.92 2.048-2.054v-.313h1.762v.313a3.816 3.816 0 0 1-3.81 3.822h-1.827a3.816 3.816 0 0 1-3.811-3.822v-4.066a3.816 3.816 0 0 1 3.811-3.822h1.827a3.816 3.816 0 0 1 3.81 3.822v.313h-1.762zm17.918 7.575V10.03h-1.762v16.04h1.762zm4.989-5.372v1.55c0 1.135.917 2.054 2.049 2.054h1.827c1.131 0 2.048-.92 2.048-2.054v-.313h1.762v.313a3.816 3.816 0 0 1-3.81 3.822h-1.827a3.816 3.816 0 0 1-3.811-3.822v-4.066a3.816 3.816 0 0 1 3.811-3.822h1.827a3.816 3.816 0 0 1 3.81 3.822v.748h.001v1.768h-7.687zm5.924-1.768h-5.924v-.748c0-1.134.917-2.054 2.049-2.054h1.827c1.131 0 2.048.92 2.048 2.054v.748zm5.489-1.917H152.4v-1.768h1.568V12.39h1.684v2.856h4.077v1.768h-4.077v5.693c0 .925.747 1.675 1.669 1.675s1.67-.75 1.67-1.675v-.351h1.684v.351a3.358 3.358 0 0 1-3.354 3.364 3.358 3.358 0 0 1-3.353-3.364v-5.693z" fill="#121319"></path><path d="M91.034 36.52c-.112.196-.233.34-.364.434a.793.793 0 0 1-.462.126c-.196 0-.41-.07-.644-.21-.224-.15-.495-.313-.812-.49a6.307 6.307 0 0 0-1.12-.476c-.42-.15-.92-.224-1.498-.224-.523 0-.98.065-1.372.196a2.87 2.87 0 0 0-.994.518 2.117 2.117 0 0 0-.588.812 2.59 2.59 0 0 0-.196 1.022c0 .476.13.872.392 1.19.27.317.625.588 1.064.812.439.224.938.424 1.498.602.56.177 1.134.368 1.722.574.588.196 1.162.429 1.722.7.56.261 1.06.597 1.498 1.008.439.401.789.896 1.05 1.484.27.588.406 1.302.406 2.142 0 .914-.159 1.773-.476 2.576a5.884 5.884 0 0 1-1.372 2.086c-.597.588-1.33 1.054-2.198 1.4-.868.336-1.862.504-2.982.504a9.288 9.288 0 0 1-1.904-.196 9.827 9.827 0 0 1-1.806-.532 9.763 9.763 0 0 1-1.61-.84 7.8 7.8 0 0 1-1.344-1.092l1.106-1.806c.093-.131.215-.238.364-.322a.883.883 0 0 1 .476-.14c.233 0 .485.098.756.294.27.186.593.396.966.63.373.233.807.448 1.302.644.504.186 1.106.28 1.806.28 1.073 0 1.904-.252 2.492-.756.588-.514.882-1.246.882-2.198 0-.532-.135-.966-.406-1.302a3.073 3.073 0 0 0-1.05-.84 7.585 7.585 0 0 0-1.498-.588c-.56-.159-1.13-.332-1.708-.518a14.738 14.738 0 0 1-1.708-.672 5.535 5.535 0 0 1-1.498-1.022 4.75 4.75 0 0 1-1.064-1.568c-.261-.635-.392-1.414-.392-2.338 0-.738.145-1.456.434-2.156.299-.7.728-1.321 1.288-1.862.56-.542 1.25-.976 2.072-1.302.821-.327 1.764-.49 2.828-.49 1.195 0 2.296.186 3.304.56 1.008.373 1.867.896 2.576 1.568l-.938 1.778zM99.234 53.306c-1.25 0-2.212-.35-2.884-1.05-.662-.71-.994-1.685-.994-2.926v-8.022h-1.47a.674.674 0 0 1-.476-.182c-.13-.122-.196-.304-.196-.546v-1.372l2.31-.378.728-3.92a.767.767 0 0 1 .266-.434.791.791 0 0 1 .504-.154h1.792v4.522h3.836v2.464h-3.836v7.784c0 .448.108.798.322 1.05.224.252.528.378.91.378.215 0 .392-.024.532-.07a2.91 2.91 0 0 0 .378-.168c.112-.056.21-.108.294-.154a.452.452 0 0 1 .252-.084c.103 0 .187.028.252.084a.96.96 0 0 1 .21.224l1.036 1.68a5.229 5.229 0 0 1-1.736.952 6.46 6.46 0 0 1-2.03.322zM111.111 38.494c1.064 0 2.03.172 2.898.518a6.283 6.283 0 0 1 2.24 1.47c.625.634 1.106 1.409 1.442 2.324.336.914.504 1.936.504 3.066 0 1.138-.168 2.165-.504 3.08-.336.914-.817 1.694-1.442 2.338a6.195 6.195 0 0 1-2.24 1.484c-.868.345-1.834.518-2.898.518-1.073 0-2.049-.173-2.926-.518a6.329 6.329 0 0 1-2.254-1.484c-.616-.644-1.097-1.424-1.442-2.338-.336-.915-.504-1.942-.504-3.08 0-1.13.168-2.152.504-3.066.345-.915.826-1.69 1.442-2.324a6.421 6.421 0 0 1 2.254-1.47c.877-.346 1.853-.518 2.926-.518zm0 12.138c1.195 0 2.077-.402 2.646-1.204.579-.803.868-1.979.868-3.528 0-1.55-.289-2.73-.868-3.542-.569-.812-1.451-1.218-2.646-1.218-1.213 0-2.114.41-2.702 1.232-.579.812-.868 1.988-.868 3.528s.289 2.716.868 3.528c.588.802 1.489 1.204 2.702 1.204zM124.095 41.21c.448-.859.98-1.531 1.596-2.016.616-.495 1.344-.742 2.184-.742.663 0 1.195.144 1.596.434l-.224 2.59c-.047.168-.117.289-.21.364a.558.558 0 0 1-.35.098c-.14 0-.35-.024-.63-.07a4.694 4.694 0 0 0-.798-.07c-.383 0-.723.056-1.022.168a2.587 2.587 0 0 0-.812.49 3.408 3.408 0 0 0-.63.756c-.177.298-.345.639-.504 1.022v8.848h-3.458V38.718h2.03c.355 0 .602.065.742.196.14.121.233.345.28.672l.21 1.624zM140.122 44.248a3.95 3.95 0 0 0-.196-1.26 2.909 2.909 0 0 0-.56-1.05 2.557 2.557 0 0 0-.966-.7c-.383-.178-.831-.266-1.344-.266-.999 0-1.787.284-2.366.854-.569.569-.933 1.376-1.092 2.422h6.524zm-6.594 2.086c.056.737.187 1.376.392 1.918.205.532.476.975.812 1.33.336.345.733.606 1.19.784.467.168.98.252 1.54.252s1.041-.066 1.442-.196c.411-.131.765-.276 1.064-.434.308-.159.574-.304.798-.434.233-.131.457-.196.672-.196.289 0 .504.107.644.322l.994 1.26a5.925 5.925 0 0 1-1.288 1.134 7.653 7.653 0 0 1-1.498.728 8.316 8.316 0 0 1-1.582.378c-.532.074-1.05.112-1.554.112a7.772 7.772 0 0 1-2.786-.49 6.361 6.361 0 0 1-2.24-1.47c-.635-.654-1.134-1.456-1.498-2.408-.364-.962-.546-2.072-.546-3.332 0-.98.159-1.9.476-2.758.317-.868.77-1.62 1.358-2.254a6.47 6.47 0 0 1 2.17-1.526c.859-.374 1.825-.56 2.898-.56a7.03 7.03 0 0 1 2.506.434 5.42 5.42 0 0 1 1.974 1.274c.551.55.98 1.232 1.288 2.044.317.802.476 1.722.476 2.758 0 .522-.056.877-.168 1.064-.112.177-.327.266-.644.266h-8.89z" fill="#121319"></path><defs><linearGradient id="paint0_linear_615_417" x1="30.72" y1="96" x2="94.667" y2="34.611" gradientUnits="userSpaceOnUse"><stop stop-color="#0FA4B7"></stop><stop offset=".495" stop-color="#1DC1C7"></stop><stop offset="1" stop-color="#2BE0D7"></stop></linearGradient><linearGradient id="paint1_linear_615_417" x1="27.437" y1="99.536" x2="97.914" y2="45.267" gradientUnits="userSpaceOnUse"><stop stop-color="#0FA4B7"></stop><stop offset=".495" stop-color="#1DC1C7"></stop><stop offset="1" stop-color="#2BE0D7"></stop></linearGradient></defs></svg>
